# xmcd
#
# Track frame offsets: 
#        182
#        22392
#        40817
#
# Disc length: 854 seconds
#
# Revision: 1
# Processed by: cddbd v1.5.2PL0 Copyright (c) Steve Scherf et al.
# Submitted via: ExactAudioCopy v0.95b4
#
DISCID=22035403
DTITLE=Madonna - Deeper And Deeper (Promo CD)
DYEAR=1992
DGENRE=Pop
TTITLE0=Deeper And Deeper (Album Edit)
TTITLE1=Deeper And Deeper (David's Radio Edit)
TTITLE2=Deeper And Deeper (Shep's Deep Makeover Edit)
EXTD=YEAR: 1995
EXTT0=
EXTT1=
EXTT2=
PLAYORDER=
